<?xml version="1.0" standalone="no"?>
<!DOCTYPE svg PUBLIC "-//W3C//DTD SVG 20010904//EN"
 "http://www.w3.org/TR/2001/REC-SVG-20010904/DTD/svg10.dtd">
<svg version="1.0" xmlns="http://www.w3.org/2000/svg"
 width="1600.000000pt" height="1600.000000pt" viewBox="0 0 1600.000000 1600.000000"
 preserveAspectRatio="xMidYMid meet">
<metadata>
Created by potrace 1.11, written by Peter Selinger 2001-2013
</metadata>
<g transform="translate(0.000000,1600.000000) scale(0.100000,-0.100000)"
fill="#000000" stroke="none">
<path d="M5834 14267 l-899 -399 -428 -426 c-236 -235 -432 -437 -437 -449 -5
-11 -14 -59 -20 -105 -6 -45 -13 -94 -15 -108 -10 -64 -78 -529 -81 -560 -2
-19 -8 -62 -14 -95 -5 -33 -12 -78 -15 -100 -3 -22 -7 -53 -10 -70 -3 -16 -7
-48 -10 -70 -3 -22 -15 -101 -26 -175 -11 -74 -22 -153 -25 -175 -2 -22 -9
-67 -14 -100 -5 -33 -12 -80 -15 -105 -3 -25 -8 -56 -10 -70 -4 -28 -15 -103
-20 -140 -10 -69 -45 -308 -49 -330 -3 -14 -7 -47 -11 -75 -3 -27 -10 -77 -15
-110 -5 -33 -11 -78 -15 -100 -3 -22 -7 -53 -10 -70 -3 -16 -7 -47 -10 -67 -3
-21 -7 -54 -10 -73 -3 -19 -7 -52 -10 -72 -3 -21 -10 -65 -15 -98 -5 -33 -12
-80 -15 -105 -3 -25 -8 -56 -10 -70 -2 -14 -7 -45 -10 -70 -3 -25 -8 -56 -10
-70 -2 -14 -6 -45 -10 -70 -3 -25 -8 -56 -10 -70 -3 -14 -7 -43 -10 -65 -2
-22 -9 -74 -15 -115 -12 -80 -14 -90 -29 -190 -13 -82 -20 -133 -27 -190 -2
-25 -6 -52 -9 -60 -2 -8 -7 -42 -11 -75 -3 -33 -7 -62 -9 -65 -2 -3 -7 -33
-10 -65 -4 -33 -9 -69 -11 -80 -2 -10 -6 -37 -9 -60 -7 -49 -45 -310 -50 -345
-9 -61 -17 -117 -21 -145 -2 -16 -12 -86 -22 -155 l-19 -125 289 -675 c158
-371 292 -683 298 -692 7 -13 62 -302 75 -393 6 -44 72 -434 80 -475 3 -14 10
-52 15 -85 5 -33 12 -69 14 -80 2 -11 7 -42 10 -68 4 -27 9 -59 12 -70 2 -12
11 -62 19 -112 8 -49 17 -101 20 -115 15 -82 55 -322 60 -360 3 -25 10 -61 15
-80 4 -19 11 -55 14 -80 3 -25 12 -81 20 -125 8 -44 17 -93 20 -110 9 -53 57
-339 61 -365 12 -72 55 -328 59 -346 2 -12 7 -39 10 -60 4 -22 11 -66 17 -99
6 -33 12 -69 14 -80 1 -11 5 -33 8 -50 3 -16 9 -48 12 -70 3 -22 7 -47 10 -55
2 -8 6 -33 10 -55 5 -35 8 -58 21 -127 1 -9 6 -37 9 -62 8 -50 -24 -21 435
-390 47 -37 103 -83 125 -101 37 -31 322 -260 411 -330 21 -16 42 -35 48 -40
6 -6 126 -102 266 -215 140 -112 257 -207 260 -210 3 -3 33 -28 68 -55 35 -28
139 -111 230 -185 92 -75 183 -147 202 -161 l35 -26 1365 1 1365 1 105 80 c58
44 107 83 110 86 3 3 46 36 95 74 50 37 108 82 130 100 22 17 162 126 310 240
149 115 351 272 451 350 100 77 196 151 214 165 18 14 157 122 310 240 153
118 291 226 308 239 22 16 34 35 38 60 3 20 12 70 19 111 8 41 17 95 20 120 4
24 8 47 10 50 1 3 6 28 9 55 4 28 16 100 26 160 11 61 22 126 25 145 3 19 10
60 15 90 12 62 14 76 30 180 7 41 14 84 16 95 8 42 24 131 29 165 3 19 8 48
11 63 3 16 7 38 8 50 2 12 6 36 9 52 4 17 9 44 11 60 3 17 12 73 21 125 9 52
19 109 21 125 2 17 6 39 8 51 2 12 16 93 31 180 14 87 29 173 32 189 3 17 7
39 8 50 2 11 8 49 15 85 7 36 14 79 17 95 2 17 20 122 39 235 19 113 37 219
40 235 2 17 15 93 29 170 13 77 26 156 29 175 6 37 42 247 50 290 3 14 7 41
10 60 4 29 54 153 157 389 19 44 27 62 54 126 16 40 28 68 60 140 15 33 56
129 92 214 35 85 68 161 73 170 4 9 44 102 89 206 54 129 79 200 77 220 -2 17
-7 55 -11 85 -4 30 -8 69 -10 85 -10 76 -15 113 -19 145 -3 19 -10 73 -16 120
-6 47 -13 101 -16 121 -10 73 -15 115 -19 149 -2 19 -6 51 -9 70 -5 33 -11 85
-22 170 -2 19 -6 51 -9 70 -3 19 -8 51 -10 70 -2 19 -6 51 -9 70 -2 19 -8 62
-11 95 -4 33 -9 67 -10 75 -2 9 -6 43 -10 75 -4 33 -9 71 -11 85 -2 14 -6 45
-9 70 -3 25 -8 59 -10 75 -3 17 -7 53 -10 80 -3 28 -8 61 -10 75 -2 14 -6 45
-10 70 -3 25 -10 77 -15 115 -5 39 -12 93 -15 120 -3 28 -8 61 -10 75 -2 14
-6 45 -9 70 -5 44 -54 419 -61 470 -2 14 -13 99 -24 190 -28 215 -31 240 -36
270 -2 14 -7 48 -10 75 -3 28 -7 64 -9 80 -3 17 -7 53 -11 80 -3 28 -10 82
-15 120 -5 39 -12 90 -15 115 -4 25 -8 56 -10 70 -6 37 -13 98 -20 160 -3 30
-8 62 -10 70 -2 8 -7 43 -10 77 -3 34 -8 72 -10 84 -3 12 -7 45 -10 73 -3 28
-8 64 -11 80 -3 16 -7 48 -9 70 -2 23 -6 57 -9 76 -6 42 -34 248 -41 310 -6
56 -14 112 -21 165 -9 64 -12 87 -19 145 -4 30 -9 64 -11 75 -4 19 -931 955
-947 955 -4 0 -27 8 -50 19 -47 21 -218 94 -347 148 -47 19 -114 48 -150 63
-36 16 -123 53 -195 83 -131 55 -626 265 -850 360 l-120 51 -1271 1 -1272 1
-898 -399z m841 -974 c4 -21 9 -47 11 -58 2 -11 26 -130 53 -265 27 -135 52
-256 55 -270 37 -194 79 -403 86 -435 9 -38 154 -765 166 -830 3 -16 14 -70
24 -120 11 -49 21 -101 24 -115 2 -14 40 -205 84 -425 45 -220 83 -411 85
-425 3 -14 20 -98 38 -187 l32 -163 667 0 666 0 28 138 c15 75 29 145 31 155
2 10 20 99 40 197 20 98 38 189 40 202 3 13 12 58 21 101 8 42 17 90 20 105 2
15 8 45 13 67 5 22 14 65 20 95 27 131 83 417 87 440 3 14 11 54 19 90 8 36
16 79 19 95 3 17 13 64 21 105 8 41 24 120 35 175 10 55 33 170 51 255 29 142
38 188 54 275 3 17 9 48 14 70 12 53 82 403 105 525 2 14 12 58 20 97 9 40 18
87 21 105 3 18 8 34 9 36 3 2 1974 -1306 1995 -1325 3 -2 5 -605 6 -1341 l0
-1337 333 -662 332 -663 -668 -1337 c-368 -736 -672 -1351 -676 -1368 -5 -16
-9 -37 -11 -45 -2 -8 -33 -134 -70 -280 -36 -146 -68 -272 -70 -280 -2 -8 -13
-53 -25 -100 -11 -47 -23 -92 -25 -100 -1 -8 -101 -404 -220 -880 -119 -476
-218 -873 -220 -883 -14 -65 -1 -75 -350 274 l-333 333 -1332 0 -1331 1 -332
-333 c-269 -269 -333 -329 -339 -315 -7 15 -193 752 -203 802 -2 9 -106 428
-233 931 l-229 915 -667 1333 -666 1332 333 668 334 667 -1 1330 c-1 1170 1
1331 14 1342 23 20 1974 1322 1981 1322 4 1 10 -16 14 -36z"/>
<path d="M4826 8638 c-22 -66 -318 -1279 -314 -1283 3 -3 52 -17 109 -31 98
-25 114 -28 157 -38 9 -2 37 -9 62 -16 25 -7 52 -14 60 -15 8 -2 62 -16 120
-30 58 -15 112 -28 120 -30 8 -2 62 -16 120 -30 58 -15 113 -29 123 -31 9 -2
25 -6 35 -9 24 -6 344 -86 362 -90 8 -2 71 -18 140 -35 69 -18 133 -34 143
-36 9 -2 25 -6 35 -8 9 -2 82 -21 162 -41 80 -20 152 -38 160 -40 8 -2 80 -20
160 -40 80 -20 152 -38 160 -40 8 -2 71 -18 140 -35 69 -18 133 -34 143 -36 9
-2 25 -6 35 -8 9 -2 37 -9 61 -16 24 -6 47 -8 51 -3 10 11 322 1263 317 1276
-2 8 -251 76 -373 102 -12 3 -192 48 -400 100 -208 53 -387 97 -399 100 -11 2
-83 20 -160 40 -77 20 -149 38 -160 40 -11 3 -92 23 -180 45 -88 23 -171 43
-183 46 -13 3 -49 12 -80 20 -32 9 -102 26 -157 39 -55 13 -116 29 -135 35
-19 6 -48 13 -65 16 -16 3 -64 14 -105 25 -41 11 -86 22 -100 25 -14 3 -46 11
-72 19 -27 8 -48 12 -48 9 0 -3 -9 0 -20 6 -15 8 -21 8 -24 -2z"/>
<path d="M10695 8528 c-258 -65 -479 -120 -490 -122 -23 -5 -421 -104 -450
-112 -38 -10 -450 -115 -470 -119 -46 -10 -65 -15 -160 -40 -55 -14 -107 -28
-115 -30 -8 -2 -89 -22 -180 -45 -91 -22 -174 -43 -185 -45 -74 -17 -121 -30
-129 -36 -9 -8 300 -1266 314 -1282 4 -5 135 24 291 63 156 39 291 73 299 75
8 2 161 40 340 85 179 44 336 83 350 86 14 3 34 8 45 11 11 4 25 8 30 9 6 1
192 48 415 104 223 56 414 103 425 106 11 2 83 20 160 39 77 20 147 38 155 40
91 21 150 39 150 46 0 5 -23 100 -51 212 -28 111 -52 209 -54 217 -2 8 -29
116 -60 240 -31 124 -58 232 -60 240 -18 80 -87 349 -93 361 -6 13 -71 -1
-477 -103z"/>
</g>
</svg>
